<svg xmlns="http://www.w3.org/2000/svg" viewBox="0 0 32 40" x="0px" y="0px"><g data-name="call"><path d="M23.17383,30.84082c-10.04326-.789-20.31969-10.97832-21.89728-20.795A6.46194,6.46194,0,0,1,3.06348,4.24707L5.25391,2.05762a3.14092,3.14092,0,0,1,4.33691,0l3.2793,3.28027a3.08532,3.08532,0,0,1-.3604,4.64453L11.29,10.873a1.07241,1.07241,0,0,0-.26953,1.4375c1.23716,2.41654,6.25308,7.43252,8.66912,8.66876a1.07313,1.07313,0,0,0,1.43732-.26837l.89063-1.22071a3.0857,3.0857,0,0,1,4.64453-.3603l3.28027,3.28023a3.04393,3.04393,0,0,1,.89844,2.168c.06062,1.847-1.86211,2.97712-3.08786,4.35845A6.4785,6.4785,0,0,1,23.17383,30.84082ZM7.42188,3.15918a1.05466,1.05466,0,0,0-.75293.3125L4.47754,5.66113A4.46752,4.46752,0,0,0,3.23926,9.667a23.85067,23.85067,0,0,0,6.7539,12.33985A23.85067,23.85067,0,0,0,22.333,28.76074a4.47181,4.47181,0,0,0,4.00586-1.23828L28.52832,25.332a1.06915,1.06915,0,0,0,0-1.50684L25.24805,20.544a1.06808,1.06808,0,0,0-1.61524.126l-.89062,1.21971a3.07625,3.07625,0,0,1-4.1211.78125,30.24578,30.24578,0,0,1-5.15527-4.13672A30.24578,30.24578,0,0,1,9.3291,13.37891a3.07763,3.07763,0,0,1,.78223-4.1211l1.21875-.89062A1.07105,1.07105,0,0,0,11.456,6.752L8.17578,3.47168A1.05858,1.05858,0,0,0,7.42188,3.15918ZM27.335,15.084a.99942.99942,0,0,1-1-1A8.428,8.428,0,0,0,17.916,5.665a1,1,0,1,1,0-2A10.43063,10.43063,0,0,1,28.335,14.084.99942.99942,0,0,1,27.335,15.084Zm-5.08789,0a.99942.99942,0,0,1-1-1A3.33461,3.33461,0,0,0,17.916,10.75293a1.0001,1.0001,0,0,1,0-2,5.33721,5.33721,0,0,1,5.331,5.33105A.99942.99942,0,0,1,22.24707,15.084Z"/></g><text x="0" y="47" fill="#000000" font-size="5px" font-weight="bold" font-family="'Helvetica Neue', Helvetica, Arial-Unicode, Arial, Sans-serif">Created by Dicky Prayudawanto</text><text x="0" y="52" fill="#000000" font-size="5px" font-weight="bold" font-family="'Helvetica Neue', Helvetica, Arial-Unicode, Arial, Sans-serif">from the Noun Project</text></svg>