<svg xmlns="http://www.w3.org/2000/svg" xmlns:xlink="http://www.w3.org/1999/xlink" version="1.1" x="0px" y="0px" viewBox="0 0 100 125" style="enable-background:new 0 0 100 100;" xml:space="preserve"><path d="M75.68,36.99c0-0.01-0.01-0.03-0.01-0.04c-0.06-0.16-0.16-0.3-0.27-0.43c-0.01-0.01-0.01-0.02-0.02-0.03l-18.2-19.52  c-0.28-0.3-0.68-0.48-1.1-0.48H28.8c-2.52,0-4.58,2.05-4.58,4.58v57.85c0,2.52,2.05,4.58,4.58,4.58h42.4c2.52,0,4.58-2.05,4.58-4.58  V37.52c0,0,0,0,0,0C75.78,37.33,75.74,37.16,75.68,36.99z M57.53,21.75l13.3,14.26H59.11c-0.87,0-1.58-0.71-1.58-1.58V21.75z   M72.78,78.92c0,0.87-0.71,1.58-1.58,1.58H28.8c-0.87,0-1.58-0.71-1.58-1.58V21.08c0-0.87,0.71-1.58,1.58-1.58h25.73v14.94  c0,2.52,2.05,4.58,4.58,4.58h13.67V78.92z"/><path d="M37.54,48.97c0,0.83,0.67,1.5,1.5,1.5h21.91c0.83,0,1.5-0.67,1.5-1.5s-0.67-1.5-1.5-1.5H39.04  C38.22,47.47,37.54,48.14,37.54,48.97z"/><path d="M60.96,54.55H39.04c-0.83,0-1.5,0.67-1.5,1.5s0.67,1.5,1.5,1.5h21.91c0.83,0,1.5-0.67,1.5-1.5S61.78,54.55,60.96,54.55z"/><path d="M60.96,61.63H39.04c-0.83,0-1.5,0.67-1.5,1.5s0.67,1.5,1.5,1.5h21.91c0.83,0,1.5-0.67,1.5-1.5S61.78,61.63,60.96,61.63z"/><path d="M50,68.71H39.04c-0.83,0-1.5,0.67-1.5,1.5s0.67,1.5,1.5,1.5H50c0.83,0,1.5-0.67,1.5-1.5S50.82,68.71,50,68.71z"/><text x="0" y="115" fill="#000000" font-size="5px" font-weight="bold" font-family="'Helvetica Neue', Helvetica, Arial-Unicode, Arial, Sans-serif">Created by Keshvala Viram Bhai</text><text x="0" y="120" fill="#000000" font-size="5px" font-weight="bold" font-family="'Helvetica Neue', Helvetica, Arial-Unicode, Arial, Sans-serif">from the Noun Project</text></svg>