<svg xmlns="http://www.w3.org/2000/svg" viewBox="0 0 32 40" x="0px" y="0px"><g data-name="email"><path d="M26.88232,27.31348H5.11768a3.9627,3.9627,0,0,1-3.9585-3.958c-.01866-.64714.01345-14.56911,0-14.711a3.96275,3.96275,0,0,1,3.95854-3.958H26.88232a3.9627,3.9627,0,0,1,3.9585,3.958c.03285.05979-.02368,14.12625.00007,14.7109A3.96281,3.96281,0,0,1,26.88232,27.31348ZM3.15918,11.86133V23.35547a1.96009,1.96009,0,0,0,1.9585,1.958H26.88232a1.96009,1.96009,0,0,0,1.9585-1.958V11.86133L18.11035,18.61816a3.97592,3.97592,0,0,1-4.22119,0Zm0-2.36328,11.7959,7.42871a1.97545,1.97545,0,0,0,2.08935,0L28.84082,9.498V8.64453a1.96009,1.96009,0,0,0-1.9585-1.958H5.11768a1.96009,1.96009,0,0,0-1.9585,1.958Z"/></g><text x="0" y="47" fill="#000000" font-size="5px" font-weight="bold" font-family="'Helvetica Neue', Helvetica, Arial-Unicode, Arial, Sans-serif">Created by Dicky Prayudawanto</text><text x="0" y="52" fill="#000000" font-size="5px" font-weight="bold" font-family="'Helvetica Neue', Helvetica, Arial-Unicode, Arial, Sans-serif">from the Noun Project</text></svg>