<svg xmlns="http://www.w3.org/2000/svg" data-name="Layer 1" viewBox="0 0 64 80" x="0px" y="0px"><path d="M32,2c-9.482,0-17.945,4.427-23.446,11.317-.031,.031-.07,.05-.097,.086-.022,.029-.026,.063-.044,.093-4.011,5.102-6.413,11.526-6.413,18.504,0,.747,.037,1.486,.091,2.22,.002,.021-.005,.04-.002,.061,.001,.008,.007,.014,.008,.022,.687,8.994,5.351,16.889,12.239,21.925,.053,.052,.116,.089,.18,.128,4.927,3.547,10.963,5.645,17.484,5.645,16.542,0,30-13.458,30-30S48.542,2,32,2Zm27.683,25.792c-1.502-.379-2.087-1.55-2.727-2.883-.588-1.226-1.255-2.615-2.778-3.051-2.176-.624-3.646,.9-4.829,2.122-1.167,1.206-1.946,1.924-3.024,1.826-1.417-.139-1.774-.694-2.792-2.602-.664-1.245-1.49-2.793-3.035-4.642-4.368-5.217-10.186-4.665-14.764-3.6-1.742,.407-2.997,.139-3.525-.751-.457-.768-.309-1.939,.337-2.667,.853-.962,1.296-1.083,2.612-1.44,.936-.254,2.219-.602,4.143-1.417,2.078-.879,3.974-2.407,5.648-4.531,12.666,1.332,22.842,11.142,24.733,23.636ZM9.464,15.406c1.272,.95,2.689,1.995,3.785,2.753,.896,.62,1.017,1.488,.961,2.107-.115,1.277-1.069,2.601-2.269,3.146-1.254,.571-2.156,1.688-3.027,2.769-1.341,1.663-2.234,2.666-3.707,2.29-.281-.072-.602-.168-.942-.278,.648-4.74,2.481-9.106,5.198-12.786Zm-5.304,19.569c1.511-.163,1.893,.075,1.897,.078,.282,.197,.612,.643,.962,1.115,.975,1.318,2.311,3.123,5.173,3.487,1.757,.222,3.066,.914,3.592,1.898,.411,.769,.337,1.722-.219,2.833-1.906,3.81-1.988,6.649-1.795,8.839-5.266-4.53-8.837-10.976-9.609-18.25Zm27.84,25.025c-5.958,0-11.483-1.876-16.027-5.061-.022-.194-.041-.38-.066-.584-.274-2.206-.616-4.952,1.446-9.074,1.075-2.148,.7-3.726,.195-4.67-.835-1.564-2.696-2.635-5.104-2.94-2.014-.256-2.93-1.495-3.817-2.692-.45-.608-.874-1.182-1.425-1.566-.644-.449-1.672-.586-3.175-.432-.011-.326-.025-.651-.025-.98,0-.598,.025-1.189,.062-1.777,.224,.067,.449,.135,.654,.187,.39,.099,.757,.144,1.104,.144,2.137,0,3.514-1.707,4.651-3.117,.759-.941,1.476-1.83,2.298-2.204,1.873-.851,3.252-2.774,3.433-4.788,.144-1.6-.518-3.032-1.816-3.931-1.057-.731-2.431-1.744-3.676-2.672,5.14-6.017,12.773-9.842,21.288-9.842,.15,0,.298,.009,.447,.011-1.214,1.291-2.528,2.243-3.925,2.834-1.8,.762-2.958,1.076-3.888,1.329-1.406,.382-2.335,.634-3.584,2.043-1.229,1.385-1.464,3.495-.56,5.016,.472,.793,1.972,2.544,5.698,1.677,6.056-1.408,9.876-.528,12.776,2.935,1.411,1.688,2.184,3.136,2.805,4.3,1.014,1.901,1.815,3.402,4.361,3.65,2.112,.211,3.521-1.253,4.655-2.425,1.164-1.201,1.87-1.869,2.843-1.59,.626,.179,.987,.875,1.524,1.994,.771,1.606,1.808,3.747,4.758,4.101,.053,.702,.089,1.409,.089,2.124,0,15.439-12.561,28-28,28Z"/><path d="M46.108,37.638c.649-2.851-1.349-4.119-3.878-5.724-1.213-.77-1.722-2.399-2.171-3.837-.376-1.204-.673-2.155-1.389-2.661-1.323-.937-2.375-.724-4.473-.301l-.953,.19c-1.053,.201-1.662-.316-2.65-1.252-.756-.716-1.613-1.528-2.844-1.731h0c-4.178-.686-6.956,3.605-8.449,5.914-.208,.321-.387,.6-.539,.812-1.49,2.08-.091,3.559,1.262,4.989,.199,.21,.408,.432,.623,.667,.464,.51,.802,1.059,1.128,1.59,.703,1.144,1.667,2.711,3.776,1.86,.638-.256,1.581-.458,2.464,.038,1.17,.658,2.02,2.413,2.458,5.073l.049,.295c1.051,6.389,1.699,10.329,5.242,10.329,.12,0,.244-.005,.371-.014,2.828-.204,4.052-3.319,4.783-5.181,.185-.471,.416-1.058,.536-1.211,.134-.171,.363-.386,.605-.615,.938-.884,2.507-2.363,1.997-4.81-.2-.955,.101-1.306,.7-2.006,.488-.571,1.096-1.281,1.354-2.414Zm-1.95-.444c-.148,.651-.508,1.072-.924,1.558-.686,.801-1.539,1.798-1.138,3.715,.263,1.256-.388,1.982-1.41,2.945-.299,.282-.581,.547-.807,.836-.301,.384-.532,.971-.824,1.714-.63,1.605-1.494,3.803-3.065,3.917-1.868,.152-2.403-2-3.496-8.645l-.048-.295c-.548-3.327-1.709-5.511-3.451-6.491-.662-.373-1.4-.56-2.172-.56-.658,0-1.34,.136-2.02,.41-.473,.188-.543,.219-1.325-1.052-.339-.552-.762-1.239-1.353-1.889-.224-.246-.442-.477-.649-.696-1.508-1.595-1.545-1.813-1.089-2.45,.167-.232,.364-.538,.592-.89,1.245-1.924,3.565-5.509,6.444-5.027,.627,.104,1.168,.617,1.795,1.21,1.022,.968,2.297,2.176,4.407,1.763l.967-.192c2.045-.412,2.339-.44,2.913-.035,.189,.174,.463,1.051,.645,1.632,.497,1.59,1.177,3.768,3.009,4.929,2.704,1.715,3.305,2.252,3,3.591Z"/><path d="M50.037,40.628c-1.006-.431-2.04,.36-2.724,.882-1.849,1.412-2.788,4.627-2.51,8.602,.062,.901,.636,1.553,1.495,1.703,.128,.022,.26,.033,.393,.033,1.378,0,2.953-1.164,3.66-2.772,.142-.324,.271-.599,.384-.844,.718-1.542,.932-2.146,.666-4.591-.171-1.572-.459-2.624-1.364-3.012Zm-1.115,6.759c-.119,.256-.253,.544-.402,.883-.446,1.014-1.327,1.496-1.731,1.569-.196-3.144,.482-5.78,1.738-6.739,.317-.243,.532-.388,.677-.474,.062,.214,.139,.588,.209,1.23,.218,2.008,.096,2.27-.491,3.531Z"/><text x="0" y="79" fill="#000000" font-size="5px" font-weight="bold" font-family="'Helvetica Neue', Helvetica, Arial-Unicode, Arial, Sans-serif">Created by Soekahurip</text><text x="0" y="84" fill="#000000" font-size="5px" font-weight="bold" font-family="'Helvetica Neue', Helvetica, Arial-Unicode, Arial, Sans-serif">from the Noun Project</text></svg>