<svg xmlns="http://www.w3.org/2000/svg" xmlns:xlink="http://www.w3.org/1999/xlink" version="1.1" x="0px" y="0px" viewBox="0 0 64 80" style="enable-background:new 0 0 64 64;" xml:space="preserve"><g><path d="M15,51h2c1.1,0,2-0.9,2-2V35c0-1.1-0.9-2-2-2h-2h-1c-4.96,0-9,4.04-9,9s4.04,9,9,9H15z"/><circle cx="32" cy="57" r="3"/><path d="M50,33h-1h-2c-1.1,0-2,0.9-2,2v14c0,1.1,0.9,2,2,2h3c4.96,0,9-4.04,9-9S54.96,33,50,33z"/><path d="M48,31h2v-9c0-4.81-1.87-9.33-5.27-12.73C41.33,5.87,36.81,4,32,4c-9.93,0-18,8.08-18,18v9h2v-9c0-8.82,7.18-16,16-16   c4.27,0,8.29,1.67,11.31,4.69C46.34,13.71,48,17.73,48,22V31z"/><path d="M17,56c-0.55,0-1-0.45-1-1v-2h-2v2c0,1.65,1.35,3,3,3h10.1c-0.07-0.32-0.1-0.66-0.1-1s0.04-0.68,0.1-1H17z"/></g><text x="0" y="79" fill="#000000" font-size="5px" font-weight="bold" font-family="'Helvetica Neue', Helvetica, Arial-Unicode, Arial, Sans-serif">Created by Kang Gurih</text><text x="0" y="84" fill="#000000" font-size="5px" font-weight="bold" font-family="'Helvetica Neue', Helvetica, Arial-Unicode, Arial, Sans-serif">from the Noun Project</text></svg>