<svg xmlns:dc="http://purl.org/dc/elements/1.1/" xmlns:cc="http://creativecommons.org/ns#" xmlns:rdf="http://www.w3.org/1999/02/22-rdf-syntax-ns#" xmlns:svg="http://www.w3.org/2000/svg" xmlns="http://www.w3.org/2000/svg" xmlns:sodipodi="http://sodipodi.sourceforge.net/DTD/sodipodi-0.dtd" xmlns:inkscape="http://www.inkscape.org/namespaces/inkscape" version="1.1" x="0px" y="0px" viewBox="0 0 100 125"><g transform="translate(0,-952.36218)"><path style="font-size:medium;font-style:normal;font-variant:normal;font-weight:normal;font-stretch:normal;text-indent:0;text-align:start;text-decoration:none;line-height:normal;letter-spacing:normal;word-spacing:normal;text-transform:none;direction:ltr;block-progression:tb;writing-mode:lr-tb;text-anchor:start;baseline-shift:baseline;opacity:1;color:#000000;fill:#000000;fill-opacity:1;stroke:none;stroke-width:4;marker:none;visibility:visible;display:inline;overflow:visible;enable-background:accumulate;font-family:Sans;-inkscape-font-specification:Sans" d="m 15.303055,964.80559 c -4.179763,0 -7.5937503,3.41399 -7.5937503,7.59375 l 0,64.78126 c 0,4.1798 3.4139873,7.625 7.5937503,7.625 l 64.8125,0 c 4.179763,0 7.59375,-3.4452 7.59375,-7.625 l 0,-64.78126 c 0,-4.17976 -3.413987,-7.59375 -7.59375,-7.59375 z m 0,4 64.8125,0 c 2.032952,0 3.59375,1.5608 3.59375,3.59375 l 0,64.78126 c 0,2.033 -1.560798,3.625 -3.59375,3.625 l -64.8125,0 c -2.032952,0 -3.59375,-1.592 -3.59375,-3.625 l 0,-64.78126 c 0,-2.03295 1.560798,-3.59375 3.59375,-3.59375 z m 13.875,7.0625 c -3.565003,0 -6.528303,2.67991 -6.875,6.125 -2.103796,0.88108 -3.625,2.89202 -3.625,5.28125 0,3.22255 2.745525,5.75 5.96875,5.75 l 17.03125,0 c 2.618877,0 4.90625,-2.08653 4.90625,-4.75 0,-2.66347 -2.272812,-4.75181 -4.90625,-4.75 -0.435314,2.9e-4 -0.729594,-0.10427 -1.09375,-0.15625 -0.615326,-2.2421 -2.638314,-3.90625 -5.0625,-3.90625 -0.06631,0 -0.121801,0.0288 -0.1875,0.0312 -1.186125,-2.1641 -3.508519,-3.625 -6.15625,-3.625 z m 0,4 c 1.545275,0 2.734027,1.04883 2.96875,2.28125 0.216262,1.18683 1.659422,1.91241 2.78125,1.46875 1.100778,-0.43534 1.877941,0.33466 1.9375,1.1875 0.06604,0.94563 0.470851,1.93398 1.375,2.21875 1.022029,0.31368 2.16928,0.50083 3.4375,0.5 0.58899,-4.1e-4 0.90625,0.36043 0.90625,0.75 0,0.38959 -0.302699,0.75 -0.90625,0.75 l -17.03125,0 c -1.197467,0 -1.96875,-0.78423 -1.96875,-1.75 0,-0.91192 0.678228,-1.69079 1.75,-1.78125 1.121266,-0.085 2.026423,-1.27106 1.8125,-2.375 -0.02749,-0.13674 -0.0625,-0.3004 -0.0625,-0.5 0,-1.47841 1.259603,-2.75 3,-2.75 z m 29.15625,18.09375 c -4.424976,0 -8.0625,3.60626 -8.0625,8.03126 0,4.425 3.637524,8.0625 8.0625,8.0625 4.424977,0 8.0625,-3.6375 8.0625,-8.0625 0,-4.425 -3.637523,-8.03126 -8.0625,-8.03126 z m 0,3.99996 c 2.263216,0 4.0625,1.7681 4.0625,4.0313 0,2.2632 -1.799284,4.0625 -4.0625,4.0625 -2.263215,0 -4.0625,-1.7993 -4.0625,-4.0625 0,-2.2632 1.799285,-4.0313 4.0625,-4.0313 z m -19.375,2.9375 c -1.638891,0.01 -3.277986,0.6643 -4.4375,2 l -15.625,18 c -0.772476,0.7783 -0.713956,2.2159 0.119219,2.9289 0.833176,0.7129 2.262549,0.5484 2.912031,-0.3351 l 15.59375,-17.9688 c 0.936907,-1.0792 1.9319,-1.0818 2.84375,-0.031 l 13.625,15.6875 c 2.322309,2.6748 6.583941,2.6748 8.90625,0 l 13.625,-15.6875 c 0.687492,-0.7936 0.59085,-2.1411 -0.202839,-2.8285 -0.79369,-0.6873 -2.141265,-0.5904 -2.828411,0.2035 l -13.625,15.7187 c -0.907263,1.045 -1.936487,1.045 -2.84375,0 l -13.625,-15.7187 c -1.158548,-1.3345 -2.798609,-1.9756 -4.4375,-1.9688 z"/></g><text x="0" y="115" fill="#000000" font-size="5px" font-weight="bold" font-family="'Helvetica Neue', Helvetica, Arial-Unicode, Arial, Sans-serif">Created by curuttehos</text><text x="0" y="120" fill="#000000" font-size="5px" font-weight="bold" font-family="'Helvetica Neue', Helvetica, Arial-Unicode, Arial, Sans-serif">from the Noun Project</text></svg>