<svg xmlns="http://www.w3.org/2000/svg" xmlns:svg="http://www.w3.org/2000/svg" viewBox="0 0 512 640" version="1.1" xml:space="preserve" x="0px" y="0px"><g transform="translate(-522)"><path style="color:#000000;paint-order:fill markers stroke;" d="m 768,27.234375 v 0.496094 c -3.05026,0.219008 -6.09523,0.508456 -9.13477,0.849609 -4.34119,0.188553 -8.67655,0.496146 -13,0.931641 l -0.42187,0.05273 c -10.78302,1.550316 -21.43996,3.868359 -31.89258,6.9375 h -0.002 c -10.45222,3.0693 -20.67105,6.88071 -30.58008,11.40625 -9.90988,4.525435 -19.48351,9.752817 -28.64844,15.642578 -9.16408,5.889603 -17.89625,12.426733 -26.1289,19.560547 -8.23275,7.133727 -15.9444,14.847337 -23.07813,23.080086 -7.13381,8.23265 -13.67094,16.96286 -19.56055,26.12695 l -0.0742,0.11719 c -4.59542,7.37067 -8.76219,14.99883 -12.49024,22.84375 -0.96203,1.71257 -1.9066,3.43512 -2.82422,5.17187 l -0.2539,0.51563 c -4.52555,9.90903 -8.33891,20.12981 -11.40821,30.58203 -3.06913,10.45262 -5.38718,21.11151 -6.9375,31.89453 -1.55026,10.78268 -2.32815,21.66113 -2.32812,32.55469 -3e-5,10.89355 0.77786,21.77396 2.32812,32.55664 1.55032,10.78301 3.86837,21.44191 6.9375,31.89453 3.0693,10.45221 6.88266,20.67105 11.40821,30.58008 l 0.25586,0.52343 c 0.87766,1.65868 1.77902,3.30484 2.69726,4.94141 3.76195,7.92644 7.97215,15.63176 12.61914,23.07422 l 0.0703,0.11133 c 5.88961,9.16408 12.42674,17.8943 19.56055,26.12695 7.13373,8.23273 14.84538,15.94635 23.07813,23.08008 8.23265,7.13381 16.96482,13.67094 26.1289,19.56055 9.16493,5.88975 18.73856,11.11715 28.64844,15.64257 9.90903,4.52555 20.12786,8.33696 30.58008,11.40625 h 0.002 c 10.45262,3.06915 21.10956,5.38719 31.89258,6.9375 l 0.42187,0.0527 c 4.32345,0.43549 8.65881,0.74309 13,0.93164 3.03954,0.34115 6.08451,0.6306 9.13477,0.84961 v 0.49414 h 20 v -0.49414 c 3.05026,-0.21901 6.09523,-0.50846 9.13477,-0.84961 4.34119,-0.18855 8.67655,-0.49615 13,-0.93164 l 0.42187,-0.0527 c 10.78302,-1.55031 21.43996,-3.86835 31.89258,-6.9375 h 0.002 c 10.45222,-3.06929 20.67105,-6.8807 30.58008,-11.40625 9.90988,-4.52542 19.48351,-9.75282 28.64844,-15.64257 9.16408,-5.88961 17.89625,-12.42674 26.1289,-19.56055 8.23275,-7.13373 15.9444,-14.84735 23.07813,-23.08008 7.13381,-8.23265 13.67094,-16.96287 19.56055,-26.12695 l 0.0703,-0.11133 c 4.64699,-7.44246 8.85719,-15.14778 12.61914,-23.07422 0.91824,-1.63657 1.8196,-3.28273 2.69726,-4.94141 l 0.25586,-0.52343 c 4.52555,-9.90903 8.33891,-20.12787 11.40821,-30.58008 3.06911,-10.45262 5.38711,-21.11152 6.93741,-31.89453 1.5503,-10.78268 2.3282,-21.66309 2.3282,-32.55664 -10e-5,-3.74273 -0.092,-7.48444 -0.2754,-11.22266 v -0.002 c -0.1834,-3.73837 -0.4596,-7.4724 -0.8262,-11.19727 -0.3669,-3.72512 -0.8238,-7.44188 -1.373,-11.14453 -0.5494,-3.70237 -1.1896,-7.39154 -1.92,-11.0625 -0.7306,-3.6714 -1.553,-7.32394 -2.46281,-10.95508 l 0.002,0.002 c -0.90935,-3.63153 -1.90768,-7.23975 -2.99414,-10.82227 l -0.002,-0.002 c -1.0868,-3.58148 -2.26029,-7.13631 -3.52149,-10.66016 v -0.002 c -1.26053,-3.52377 -2.60912,-7.01497 -4.04101,-10.47266 v -0.002 c -1.43261,-3.45842 -2.9502,-6.88167 -4.55078,-10.26563 l -0.0781,-0.16015 c -0.44878,-0.90643 -0.90252,-1.81054 -1.36328,-2.71094 l -0.002,-0.002 c -1.15104,-2.38577 -2.34108,-4.7533 -3.57422,-7.09766 l -0.0293,-0.0586 c -1.7641,-3.30105 -3.60927,-6.55707 -5.5332,-9.76758 l -0.002,-0.002 c -1.92499,-3.211 -3.92757,-6.37366 -6.00782,-9.48632 -2.07931,-3.11194 -4.23535,-6.17156 -6.46484,-9.17774 h 0.002 c -2.22969,-3.00665 -4.53366,-5.95793 -6.9082,-8.85156 v -0.002 c -2.37482,-2.89376 -4.82004,-5.72822 -7.33398,-8.50196 -2.51399,-2.773885 -5.09708,-5.485628 -7.74414,-8.132813 -2.64719,-2.647072 -5.35892,-5.228206 -8.13282,-7.742187 -2.77373,-2.513954 -5.60819,-4.959166 -8.50195,-7.333985 -2.89363,-2.374539 -5.84491,-4.678502 -8.85156,-6.908203 -3.00618,-2.229492 -6.0658,-4.385518 -9.17774,-6.464844 v 0.002 c -3.11266,-2.080243 -6.27531,-4.084782 -9.48632,-6.009766 h -0.002 c -3.21002,-1.923634 -6.46704,-3.76935 -9.76758,-5.533203 h -0.002 c -3.3011,-1.764457 -6.6456,-3.448463 -10.0293,-5.048828 -3.38394,-1.600583 -6.8072,-3.118174 -10.26562,-4.550781 -3.45769,-1.431888 -6.95084,-2.77852 -10.47461,-4.039063 h -0.002 c -3.52385,-1.261195 -7.07673,-2.436641 -10.65821,-3.523437 h -0.002 c -3.58252,-1.086457 -7.19074,-2.084793 -10.82227,-2.994141 -3.63112,-0.909876 -7.28368,-1.730331 -10.95507,-2.460938 -3.67096,-0.730347 -7.36015,-1.370557 -11.0625,-1.919921 -3.70265,-0.549277 -7.41746,-1.008057 -11.14258,-1.375 l -0.11914,-0.01172 c -1.86871,-0.161586 -3.73924,-0.296632 -5.61133,-0.41211 -1.77802,-0.152212 -3.55876,-0.283964 -5.33984,-0.394531 l -0.12891,-0.0059 c -0.40783,-0.01996 -0.81668,-0.01147 -1.22461,-0.0293 v -0.248047 h -10 z m 20,20.246094 c 0.0566,0.0027 0.11333,0.0011 0.16992,0.0039 1.41225,0.08804 2.82228,0.195763 4.23242,0.3125 0.45249,0.09601 0.90505,0.19139 1.35743,0.296875 1.70933,0.45208 3.41936,0.97418 5.12695,1.576172 1.73877,0.612918 3.4764,1.304212 5.21094,2.074219 1.73281,0.770046 3.46232,1.618707 5.1875,2.546875 l 0.002,0.002 c 1.72668,0.928503 3.44928,1.935801 5.16406,3.023437 l 0.002,0.002 c 1.71507,1.087323 3.42087,2.253514 5.11915,3.5 1.69737,1.246843 3.3853,2.571562 5.06054,3.976563 l 0.002,0.0039 c 1.67613,1.404751 3.33986,2.887872 4.98828,4.449219 1.6473,1.561269 3.27867,3.198931 4.89257,4.914062 h 0.002 c 1.61496,1.715965 3.21119,3.508293 4.78711,5.375 v 0.002 c 1.57593,1.866288 3.13068,3.805343 4.66211,5.81836 1.53094,2.013106 3.03642,4.09682 4.51758,6.251953 l 0.002,0.002 c 1.48181,2.155246 2.9363,4.379678 4.36328,6.671875 1.42597,2.291781 2.82303,4.651321 4.18945,7.074221 l 0.002,0.002 c 1.36742,2.42342 2.70444,4.91037 4.00781,7.45898 1.30261,2.54774 2.57222,5.15791 3.80664,7.82422 1.23498,2.66699 2.43481,5.39109 3.59765,8.16992 1.16188,2.77837 2.28686,5.61121 3.37305,8.49414 v 0.002 c 1.08729,2.88385 2.1363,5.81768 3.14453,8.79883 0.41803,1.23647 0.7991,2.51344 1.20313,3.76563 H 788 Z m -20,0.353515 V 149.87305 h -87.88867 c 0.9851,-3.13531 1.83844,-6.40903 2.91015,-9.44727 3.07597,-8.47899 6.47971,-16.53464 10.17579,-24.0957 0.92549,-1.89356 1.8698,-3.7555 2.83007,-5.58399 v -0.002 c 2.88166,-5.48694 5.91647,-10.67601 9.08594,-15.544921 4.22594,-6.491053 8.67983,-12.394753 13.3086,-17.667969 4.62921,-5.273759 9.42161,-9.903044 14.31835,-13.867188 4.88893,-3.957845 9.86834,-7.241156 14.89063,-9.857421 4.5866,-2.356434 9.19616,-4.118213 13.8125,-5.371094 2.18164,-0.241178 4.36936,-0.42458 6.55664,-0.601563 z m 79.94141,11.476563 c 0.1286,0.04575 0.26015,0.08291 0.38867,0.128906 h 0.002 c 3.21623,1.1505 6.4027,2.380584 9.55859,3.6875 3.15607,1.30736 6.27909,2.691695 9.36719,4.152344 3.08835,1.460677 6.13939,2.996952 9.15235,4.607422 h 0.002 c 3.01195,1.609599 5.98275,3.29342 8.91211,5.048828 2.93028,1.756689 5.81766,3.584048 8.6582,5.482422 v 0.002 c 2.83988,1.897537 5.6336,3.863862 8.37696,5.898437 2.74379,2.034766 5.43747,4.135792 8.07812,6.302735 2.64077,2.167196 5.22852,4.399192 7.75977,6.693359 2.53137,2.2942 5.00612,4.65076 7.42187,7.06641 2.41565,2.41575 4.77027,4.8905 7.06445,7.42187 2.29417,2.53125 4.52618,5.119 6.69336,7.75977 2.1666,2.64027 4.26828,5.33279 6.30274,8.07617 h 0.002 c 2.03458,2.74336 4.0009,5.53709 5.89844,8.37695 1.89837,2.84055 3.72768,5.72793 5.48437,8.65821 0.23603,0.39388 0.44432,0.8038 0.67774,1.19922 h -60.5918 c -0.0419,-0.14138 -0.0791,-0.2865 -0.12109,-0.42774 l -0.01,-0.0352 c -0.98854,-3.27873 -2.02361,-6.51483 -3.10351,-9.70899 v -0.002 c -1.0802,-3.19394 -2.20545,-6.34319 -3.375,-9.44531 v -0.002 c -1.16872,-3.10187 -2.3808,-6.15503 -3.63672,-9.1582 l -0.002,-0.002 c -1.25687,-3.00352 -2.55654,-5.95562 -3.89843,-8.85352 -1.34169,-2.89799 -2.72405,-5.73957 -4.14844,-8.52539 l -0.002,-0.002 c -1.42438,-2.78523 -2.88792,-5.512979 -4.39258,-8.179693 l -0.002,-0.002 c -1.50381,-2.666473 -3.04726,-5.270591 -4.6289,-7.8125 v -0.002 c -1.58296,-2.542744 -3.20493,-5.02157 -4.86328,-7.433594 h 0.002 c -1.65757,-2.41181 -3.3536,-4.755878 -5.08398,-7.03125 v -0.002 c -1.73069,-2.274946 -3.4979,-4.478548 -5.29883,-6.611328 v -0.002 c -1.80031,-2.132452 -3.63605,-4.192982 -5.50391,-6.177735 l -0.002,-0.002 c -0.37316,-0.396547 -0.7629,-0.754031 -1.13867,-1.144531 z M 707.875,59.464844 c -1.51457,1.579178 -3.01242,3.196148 -4.48438,4.873047 -5.3136,6.053408 -10.33307,12.720807 -15.03906,19.949218 -4.70596,7.229256 -9.08663,15.001309 -13.12304,23.259771 -4.03682,8.25813 -7.7179,16.98113 -11.02735,26.10937 l -0.0293,0.082 c -1.85146,5.24662 -3.53137,10.65595 -5.13086,16.13477 H 598.4453 c 1.30175,-2.27643 2.58165,-4.56641 3.96875,-6.79297 5.36563,-8.34311 11.31646,-16.29632 17.8125,-23.79297 6.51006,-7.51297 13.54953,-14.5505 21.0625,-21.060548 7.5129,-6.510129 15.48085,-12.474912 23.84375,-17.849609 8.36368,-5.374841 17.10104,-10.145598 26.14453,-14.275391 5.42538,-2.477815 10.98282,-4.635676 16.59766,-6.636718 z M 587.85352,169.87305 h 65.68164 c -0.79954,3.43735 -1.50276,6.93475 -2.20508,10.43359 -0.82326,3.98751 -1.59292,8.00693 -2.26758,12.08008 -1.71136,10.33223 -3.00227,20.85677 -3.86523,31.49805 -0.86248,10.63979 -1.29534,21.36984 -1.29493,32.11328 -4.6e-4,10.74409 0.43239,21.47478 1.29493,32.11523 0.86296,10.64128 2.15387,21.16582 3.86523,31.49805 0.67033,4.047 1.43654,8.03965 2.25391,12.00195 0.68972,3.44005 1.37841,6.87905 2.16211,10.25977 H 587.75 c -3.96384,-8.78115 -7.34192,-17.81387 -10.05664,-27.0586 -2.80082,-9.53878 -4.91725,-19.26517 -6.33203,-29.10547 -1.41474,-9.83998 -2.12502,-19.76977 -2.125,-29.71093 -2e-5,-9.94117 0.71026,-19.869 2.125,-29.70899 1.41478,-9.84029 3.53121,-19.56668 6.33203,-29.10547 2.74016,-9.33134 6.14759,-18.45212 10.16016,-27.31054 z m 86.29882,0 H 768 v 172 h -93.90625 c -2.05271,-8.30228 -3.85585,-16.80577 -5.30078,-25.5293 -1.61854,-9.77183 -2.84317,-19.74746 -3.66211,-29.8457 C 664.31234,276.40057 663.9019,266.20684 663.90234,256 v -0.002 c -4.4e-4,-10.20685 0.41,-20.40058 1.22852,-30.49805 0.81894,-10.09824 2.04357,-20.07387 3.66211,-29.8457 1.45942,-8.81099 3.28008,-17.40059 5.35937,-25.78125 z m 113.84766,0 h 93.85938 c 0.34929,1.40768 0.72243,2.79516 1.05468,4.21679 0.75337,3.22533 1.463,6.48475 2.12696,9.77539 v 0.002 c 0.66476,3.29097 1.284,6.61295 1.85742,9.96093 0.5722,3.34693 1.09884,6.71998 1.57812,10.11524 v 0.002 c 0.4804,3.39657 0.91475,6.81558 1.30078,10.25196 0.38541,3.43576 0.72369,6.88869 1.01368,10.35546 v 0.002 c 0.2903,3.46753 0.53252,6.94773 0.72656,10.4375 0.19356,3.48874 0.33875,6.98621 0.43554,10.48828 0.0968,3.50318 0.14488,7.00998 0.14454,10.51758 V 256 c 4.4e-4,10.20684 -0.41,20.40057 -1.22852,30.49805 -0.81894,10.09824 -2.04357,20.07387 -3.66211,29.8457 -1.44493,8.72353 -3.24807,17.22702 -5.30078,25.5293 H 788 Z m 114.46289,0 h 65.64649 c 0.93847,2.07138 1.89332,4.13525 2.76367,6.23633 1.30665,3.15535 2.53525,6.34293 3.68554,9.55859 v 0.002 c 1.15115,3.21629 2.22485,6.45961 3.2168,9.72852 l -0.002,-0.002 c 0.99147,3.26932 1.90257,6.56293 2.73242,9.87696 l 0.002,0.002 c 0.83033,3.31368 1.57741,6.64762 2.24414,9.99805 0.6665,3.35 1.25062,6.71507 1.75196,10.09375 0.50125,3.37892 0.92099,6.76851 1.25586,10.16797 0.33457,3.39979 0.58461,6.80662 0.75195,10.21875 v 0.002 c 0.16764,3.41134 0.25187,6.82673 0.25195,10.24219 2e-5,9.94116 -0.71026,19.87095 -2.125,29.71093 -1.41478,9.8403 -3.53121,19.56669 -6.33203,29.10547 -2.71472,9.24473 -6.0928,18.27745 -10.05664,27.0586 h -65.72852 c 0.7837,-3.38072 1.47239,-6.81972 2.16211,-10.25977 0.81737,-3.9623 1.58358,-7.95495 2.25391,-12.00195 1.71136,-10.33223 3.00227,-20.85677 3.86523,-31.49805 0.86254,-10.64045 1.29539,-21.37114 1.29493,-32.11523 3.4e-4,-3.69158 -0.0505,-7.38293 -0.15235,-11.07032 -0.10193,-3.68754 -0.25507,-7.36999 -0.45898,-11.04492 v -0.002 c -0.20432,-3.67468 -0.45976,-7.34052 -0.76563,-10.99414 v -0.002 c -0.30562,-3.65349 -0.66181,-7.29386 -1.06836,-10.91797 v -0.002 c -0.40705,-3.62345 -0.86397,-7.23062 -1.37109,-10.8164 v -0.004 c -0.50621,-3.58569 -1.06272,-7.14952 -1.66797,-10.68945 v -0.004 c -0.60638,-3.54043 -1.26254,-7.05449 -1.9668,-10.54101 v -0.002 c -0.68088,-3.37448 -1.41229,-6.71842 -2.18359,-10.03515 z m -304.16797,192 h 60.66797 c 1.62241,5.56724 3.32834,11.06283 5.21094,16.39062 l 0.0273,0.0781 c 3.30945,9.12824 6.99053,17.85124 11.02735,26.10937 4.03641,8.25845 8.41708,16.0305 13.12304,23.25977 4.70599,7.22841 9.72546,13.8958 15.03906,19.94922 1.47196,1.67689 2.96981,3.29387 4.48438,4.87304 -5.61484,-2.00103 -11.17228,-4.1589 -16.59766,-6.63672 -9.04349,-4.12978 -17.78085,-8.90054 -26.14453,-14.27539 -8.3629,-5.37469 -16.33085,-11.33947 -23.84375,-17.84961 -7.51297,-6.51004 -14.55244,-13.54757 -21.0625,-21.06054 -6.49758,-7.49844 -12.4498,-15.45356 -17.8164,-23.79883 -1.43915,-2.30672 -2.76777,-4.6788 -4.11524,-7.03906 z m 81.73828,0 H 768 v 102.28906 c -2.18737,-0.17546 -4.375,-0.35843 -6.55664,-0.59961 -4.61634,-1.25288 -9.2259,-3.01467 -13.8125,-5.37109 -5.02229,-2.61627 -10.0017,-5.89958 -14.89063,-9.85743 -4.89674,-3.96413 -9.68914,-8.59343 -14.31835,-13.86718 -4.62877,-5.27322 -9.08266,-11.17692 -13.3086,-17.66797 -4.22596,-6.49189 -8.21299,-13.55451 -11.91601,-21.13086 -3.69754,-7.56405 -7.10277,-15.62279 -10.17969,-24.10547 -1.10013,-3.11484 -1.97537,-6.47254 -2.98438,-9.68945 z m 107.9668,0 h 87.9668 c -1.00901,3.21691 -1.88425,6.57461 -2.98438,9.68945 -3.07692,8.48268 -6.48215,16.54142 -10.17969,24.10547 -3.70302,7.57635 -7.69005,14.63897 -11.91601,21.13086 -4.22594,6.49105 -8.67982,12.39475 -13.3086,17.66797 -4.6292,5.27375 -9.42161,9.90305 -14.31835,13.86718 -4.88893,3.95785 -9.86834,7.24116 -14.89063,9.85743 -4.5866,2.35642 -9.19616,4.11821 -13.8125,5.37109 -2.18164,0.24118 -4.36927,0.42415 -6.55664,0.59961 z m 109.03711,0 h 60.66797 c -1.34746,2.36026 -2.67609,4.73234 -4.11524,7.03906 -5.3666,8.34527 -11.31882,16.30039 -17.8164,23.79883 -6.51006,7.51297 -13.54953,14.5505 -21.0625,21.06054 -7.5129,6.51014 -15.48085,12.47492 -23.84375,17.84961 -8.36368,5.37485 -17.10104,10.14561 -26.14453,14.27539 -5.42538,2.47782 -10.98282,4.63569 -16.59766,6.63672 1.51457,-1.57917 3.01243,-3.19615 4.48438,-4.87304 5.31361,-6.05342 10.33307,-12.72081 15.03906,-19.94922 4.70596,-7.22927 9.08663,-15.00132 13.12304,-23.25977 4.03682,-8.25813 7.7179,-16.98113 11.02735,-26.10937 l 0.0273,-0.0781 c 1.8826,-5.32779 3.58853,-10.82338 5.21094,-16.39062 z" fill="#000000" stroke-width="20" stroke-linecap="square" stroke-linejoin="bevel"/></g><text x="0" y="527" fill="#000000" font-size="5px" font-weight="bold" font-family="'Helvetica Neue', Helvetica, Arial-Unicode, Arial, Sans-serif">Created by Bambang Tirta Suganda</text><text x="0" y="532" fill="#000000" font-size="5px" font-weight="bold" font-family="'Helvetica Neue', Helvetica, Arial-Unicode, Arial, Sans-serif">from the Noun Project</text></svg>