<svg xmlns="http://www.w3.org/2000/svg" data-name="Layer 1" viewBox="0 0 32 40" x="0px" y="0px"><defs><style>
      .cls-1 {
        stroke-width: 0px;
      }
    </style></defs><path class="cls-1" d="m16,9.24c-2.69,0-4.88,2.23-4.88,4.97s2.19,4.97,4.88,4.97,4.88-2.23,4.88-4.97-2.19-4.97-4.88-4.97Zm0,7.94c-1.59,0-2.88-1.33-2.88-2.97s1.29-2.97,2.88-2.97,2.88,1.33,2.88,2.97-1.29,2.97-2.88,2.97Z"/><path class="cls-1" d="m16,4c-5.51,0-10,4.58-10,10.21,0,8.37,9.13,13.46,9.52,13.67.15.08.31.12.48.12s.33-.04.48-.12c.39-.21,9.52-5.3,9.52-13.67,0-5.63-4.49-10.21-10-10.21Zm0,21.83c-1.8-1.12-8-5.46-8-11.63,0-4.53,3.59-8.21,8-8.21s8,3.68,8,8.21c0,6.17-6.2,10.5-8,11.63Z"/><text x="0" y="47" fill="#000000" font-size="5px" font-weight="bold" font-family="'Helvetica Neue', Helvetica, Arial-Unicode, Arial, Sans-serif">Created by crispicon</text><text x="0" y="52" fill="#000000" font-size="5px" font-weight="bold" font-family="'Helvetica Neue', Helvetica, Arial-Unicode, Arial, Sans-serif">from the Noun Project</text></svg>