<svg xmlns="http://www.w3.org/2000/svg" data-name="Layer 1" viewBox="0 0 100 125" x="0px" y="0px"><path d="M30,56.65a11.2,11.2,0,0,1,1.65-5.87H19.43a5.94,5.94,0,0,0-5.94,5.95A10.18,10.18,0,0,0,23.66,66.9h4.79a10.09,10.09,0,0,0,4.31-1A16.84,16.84,0,0,1,30,56.65Z"/><path d="M80.56,51.36H68.71A11.21,11.21,0,0,1,70,56.65a16.87,16.87,0,0,1-3.09,9.73,10.13,10.13,0,0,0,4.6,1.1h4.8A10.17,10.17,0,0,0,86.51,57.3,6,6,0,0,0,80.56,51.36Z"/><path d="M67,56.65A8.25,8.25,0,0,0,64.82,51a8.34,8.34,0,0,0-6.09-2.66H41.27a8.23,8.23,0,0,0-5.69,2.26l-.18.17A8.22,8.22,0,0,0,33,56.65,13.86,13.86,0,0,0,46.84,70.53h6.31A13.8,13.8,0,0,0,63,66.47c.22-.22.42-.44.62-.67A13.86,13.86,0,0,0,67,56.65Z"/><path d="M50,29.47a7.59,7.59,0,1,0,7.58,7.58A7.59,7.59,0,0,0,50,29.47Z"/><path d="M73.94,36.67a5.4,5.4,0,1,0,5.4,5.4A5.4,5.4,0,0,0,73.94,36.67Z"/><path d="M20.66,41.49a5.4,5.4,0,1,0,5.4-5.4A5.4,5.4,0,0,0,20.66,41.49Z"/><text x="0" y="115" fill="#000000" font-size="5px" font-weight="bold" font-family="'Helvetica Neue', Helvetica, Arial-Unicode, Arial, Sans-serif">Created by Saiful Rizal</text><text x="0" y="120" fill="#000000" font-size="5px" font-weight="bold" font-family="'Helvetica Neue', Helvetica, Arial-Unicode, Arial, Sans-serif">from the Noun Project</text></svg>