<svg xmlns="http://www.w3.org/2000/svg" xmlns:xlink="http://www.w3.org/1999/xlink" version="1.1" x="0px" y="0px" viewBox="0 0 100 125" style="enable-background:new 0 0 100 100;" xml:space="preserve"><g><path d="M50,15.6C31,15.6,15.6,31,15.6,50S31,84.4,50,84.4S84.4,69,84.4,50S69,15.6,50,15.6z M50,81.4c-17.3,0-31.4-14.1-31.4-31.4   S32.7,18.6,50,18.6S81.4,32.7,81.4,50S67.3,81.4,50,81.4z"/><path d="M63.1,55.8H36.9c-0.8,0-1.5,0.7-1.5,1.5s0.7,1.5,1.5,1.5h8v6.6c0,2.6,2.1,4.6,4.6,4.6h0.9c2.6,0,4.6-2.1,4.6-4.6v-6.6h8   c0.8,0,1.5-0.7,1.5-1.5S63.9,55.8,63.1,55.8z M52.1,65.4c0,0.9-0.7,1.6-1.6,1.6h-0.9c-0.9,0-1.6-0.7-1.6-1.6v-6.6h4.2v6.6H52.1z"/><circle cx="40" cy="40.5" r="4.4"/><circle cx="61.1" cy="40.5" r="4.4"/></g><text x="0" y="115" fill="#000000" font-size="5px" font-weight="bold" font-family="'Helvetica Neue', Helvetica, Arial-Unicode, Arial, Sans-serif">Created by Shiva</text><text x="0" y="120" fill="#000000" font-size="5px" font-weight="bold" font-family="'Helvetica Neue', Helvetica, Arial-Unicode, Arial, Sans-serif">from the Noun Project</text></svg>