<svg xmlns="http://www.w3.org/2000/svg" viewBox="0 0 90 112.5" x="0px" y="0px"><title>ic</title><g data-name="Layer 3"><path d="M51.69,56.1a1,1,0,0,0-1.35.42c-.86,1.63-1.42,2.62-1.64,2.94a4.42,4.42,0,0,1-7.18-5.16c.23-.32,1-1.16,2.26-2.49a1,1,0,1,0-1.45-1.38,36,36,0,0,0-2.43,2.7,6.42,6.42,0,0,0,5.2,10.17,6.54,6.54,0,0,0,1.05-.09,6.38,6.38,0,0,0,4.18-2.59,36.27,36.27,0,0,0,1.78-3.17A1,1,0,0,0,51.69,56.1Z"/><path d="M69.11,24.58a1,1,0,0,0-1.32.09L45.5,47.18a1,1,0,0,0-.22,1.06l1.86,4.86a1,1,0,0,0,.89.64l5.2.21h0a1,1,0,0,0,.89-.55c4.47-8.9,15.09-27.35,15.2-27.54A1,1,0,0,0,69.11,24.58ZM52.67,51.94l-3.9-.16-1.4-3.64L63.88,31.46C60.46,37.5,55.52,46.33,52.67,51.94Z"/><circle cx="44.97" cy="57.06" r="1.95" transform="translate(-27.61 60.29) rotate(-54.31)"/><path d="M45,8A40.94,40.94,0,0,0,12,24.69l-.07.06a1,1,0,0,0-.08.15,40.86,40.86,0,0,0-6.91,32.9s0,0,0,.07l0,.06A40.85,40.85,0,0,0,13.28,75a1,1,0,0,0,1.39.15L22,69.41A1,1,0,0,0,22.13,68,29.53,29.53,0,0,1,61,24.46a1,1,0,1,0,1.09-1.68,31.39,31.39,0,0,0-16.11-5V10A38.94,38.94,0,0,1,75.81,25.18L69,30.62A1,1,0,0,0,68.85,32l1.32,1.88A29.54,29.54,0,0,1,67.81,68,1,1,0,0,0,68,69.41l7.31,5.72A1,1,0,0,0,76.66,75,41,41,0,0,0,45,8ZM14.21,72.94A38.86,38.86,0,0,1,7.12,58.31l7.14-2a31.44,31.44,0,0,0,5.68,12.11Zm-.77-23.67a31.5,31.5,0,0,0,.42,5.12l-7.16,2a38.77,38.77,0,0,1,6.23-29.52l5.93,4.77A31.35,31.35,0,0,0,13.44,49.27ZM20,30l-5.93-4.77A38.93,38.93,0,0,1,44,10v7.72A31.49,31.49,0,0,0,20,30Zm51.79,2.78L71,31.6l6-4.8a38.81,38.81,0,0,1,6.25,29.57l-7.16-2a31.51,31.51,0,0,0-4.24-21.64Zm3.89,40.18L70,68.45a31.45,31.45,0,0,0,5.68-12.09l7.14,2A38.86,38.86,0,0,1,75.73,72.94Z"/></g><text x="0" y="105" fill="#000000" font-size="5px" font-weight="bold" font-family="'Helvetica Neue', Helvetica, Arial-Unicode, Arial, Sans-serif">Created by AS Design</text><text x="0" y="110" fill="#000000" font-size="5px" font-weight="bold" font-family="'Helvetica Neue', Helvetica, Arial-Unicode, Arial, Sans-serif">from the Noun Project</text></svg>